<svg width="40" height="40" viewBox="0 0 40 40" fill="none" xmlns="http://www.w3.org/2000/svg">
<circle cx="20" cy="20" r="20" fill="#DF4C4F"/>
<path d="M28.5781 20.4609C28.5781 22.9453 27.793 24.9844 26.2227 26.5781C24.6758 28.1719 22.6484 28.9688 20.1406 28.9688C17.7266 28.9688 15.6641 28.125 13.9531 26.4375C12.2656 24.7266 11.4219 22.6641 11.4219 20.25C11.4219 17.8359 12.2656 15.7852 13.9531 14.0977C15.6641 12.3867 17.7266 11.5312 20.1406 11.5312C22.4141 11.5312 24.3594 12.293 25.9766 13.8164L23.6211 16.1016C22.8711 15.375 21.9688 14.9531 20.9141 14.8359C19.8828 14.6953 18.9102 14.8242 17.9961 15.2227C17.1055 15.5977 16.332 16.2422 15.6758 17.1562C15.043 18.0469 14.7266 19.0781 14.7266 20.25C14.7266 21.7734 15.2539 23.0742 16.3086 24.1523C17.3633 25.2305 18.6406 25.7695 20.1406 25.7695C20.9609 25.7695 21.6875 25.6406 22.3203 25.3828C22.9766 25.1016 23.4805 24.7617 23.832 24.3633C24.207 23.9414 24.4883 23.5312 24.6758 23.1328C24.8867 22.7344 25.0273 22.3594 25.0977 22.0078H20.1406V18.9844H28.4375C28.5312 19.5 28.5781 19.9922 28.5781 20.4609Z" fill="white"/>
</svg>
