<svg width="60" height="60" viewBox="0 0 60 60" fill="none" xmlns="http://www.w3.org/2000/svg">
<rect y="-0.000488281" width="60" height="60" rx="20" fill="#D0FFDA"/>
<path d="M26.5512 43.3901C26.3397 43.3901 26.1327 43.4761 25.9833 43.6256C25.834 43.775 25.748 43.9825 25.748 44.1937C25.748 44.405 25.834 44.6125 25.9833 44.7619C26.1327 44.9113 26.3397 44.9973 26.5512 44.9973C26.7623 44.9973 26.9694 44.9113 27.119 44.7619C27.2683 44.6125 27.3543 44.4059 27.3543 44.1937C27.3543 43.9825 27.2683 43.775 27.119 43.6256C26.9694 43.4761 26.7623 43.3901 26.5512 43.3901Z" fill="#F53838"/>
<path d="M42.5478 29.9027L40.6761 21.4442C41.1812 21.3758 41.6267 21.1188 41.9401 20.7466C42.31 20.9778 42.7464 21.1122 43.2138 21.1122H44.8201C45.2637 21.1122 45.6233 20.7525 45.6233 20.3088V17.0952C45.6233 16.6515 45.2637 16.2918 44.8201 16.2918H43.2138C42.7326 16.2918 42.2839 16.4343 41.9072 16.6788C41.5395 16.2629 41.0027 16 40.4053 16H35.6643C34.8125 16 34.0834 16.5344 33.7932 17.2854H31.8895C30.7382 17.2854 29.8014 18.2225 29.8014 19.3742C29.8014 20.5259 30.7382 21.463 31.8895 21.463H36.0235V23.082C36.0235 23.5258 36.383 23.8854 36.8267 23.8854C37.2703 23.8854 37.6298 23.5258 37.6298 23.082V21.463H39.0353L41.0513 30.5749L37.2358 37.373C36.8188 38.113 36.0326 38.5727 35.1834 38.5727H25.6583C25.2595 35.2277 22.4084 32.6251 18.959 32.6251C17.4327 32.6251 15.9927 33.1225 14.7945 34.0634C14.793 34.0646 14.7914 34.0659 14.7898 34.0671C13.3633 35.1894 12.4667 36.7999 12.2577 38.5727H10.6082C10.713 32.7971 15.4424 28.1312 21.2404 28.1312H26.9377C27.3872 28.1312 27.7534 28.4974 27.7534 28.9474V36.1625C27.7534 36.6063 28.1129 36.9659 28.5565 36.9659H32.8301C34.5735 36.9659 36.1801 36.0176 37.0227 34.4914C37.4127 33.7853 37.6194 32.9857 37.6201 32.1795L37.6242 29.5104C37.6248 29.0667 37.2656 28.7064 36.822 28.7058C36.8216 28.7058 36.8213 28.7058 36.821 28.7058C36.378 28.7058 36.0185 29.0648 36.0179 29.5079L36.0138 32.1776C36.0135 32.7136 35.8761 33.2452 35.6169 33.7144C35.0566 34.7287 33.9887 35.3588 32.8301 35.3588H29.3596V28.9471C29.3596 28.5357 29.2561 28.1478 29.0745 27.8079C29.796 27.3908 30.2829 26.6113 30.2829 25.7197C30.2829 24.3907 29.2018 23.3096 27.8735 23.3096H24.942C24.6603 23.3096 24.3902 23.3585 24.1389 23.4476V16.4004C24.1389 15.0714 23.0578 13.9902 21.7295 13.9902H16.5483C12.7923 13.9902 9.66887 16.7487 9.09475 20.3464C9.07059 20.423 9.05741 20.5043 9.05741 20.5887C9.05741 20.5937 9.05804 20.5984 9.05804 20.6031C9.01976 20.9107 9 21.2236 9 21.5408V25.72C9 26.9267 9.8913 27.929 11.0499 28.1032L12.8284 29.8823C10.472 32.1155 9 35.2732 9 38.7688V39.3761C9 39.8198 9.35953 40.1795 9.80314 40.1795H14.3167C14.3064 40.2313 14.3007 40.2852 14.3007 40.3402C14.3007 41.506 14.7321 42.5727 15.4424 43.3905H9.80314C9.35953 43.3905 9 43.7505 9 44.1939C9 44.6377 9.35953 44.9973 9.80314 44.9973H18.8661C18.8972 44.9983 18.9279 44.9998 18.959 44.9998C21.5274 44.9998 23.6172 42.9094 23.6172 40.3402C23.6172 40.2852 23.6115 40.2313 23.6012 40.1795H35.1834C36.448 40.1795 37.6298 39.5732 38.3705 38.5702H39.3876C39.1589 39.1269 39.0375 39.727 39.0375 40.3402C39.0375 41.506 39.4689 42.5727 40.1791 43.3905H29.7637C29.3201 43.3905 28.9606 43.7505 28.9606 44.1939C28.9606 44.6377 29.3201 44.9973 29.7637 44.9973H43.6029C43.6339 44.9983 43.6647 44.9998 43.6957 44.9998C46.2642 44.9998 48.3539 42.9094 48.3539 40.3402C48.3539 39.727 48.2325 39.1269 48.0038 38.5702H49.3177C49.7613 38.5702 50.1208 38.2106 50.1208 37.7668C50.1208 33.5261 46.7499 30.058 42.5478 29.9027ZM24.942 24.9166H27.8735C28.3162 24.9166 28.6767 25.2769 28.6767 25.72C28.6767 26.1628 28.3162 26.5234 27.8735 26.5234H24.942C24.4991 26.5234 24.1389 26.1628 24.1389 25.72C24.1389 25.2769 24.4991 24.9166 24.942 24.9166ZM10.6063 21.5408C10.6063 21.4913 10.6088 21.442 10.61 21.3924H19.3985C19.8421 21.3924 20.2016 21.0328 20.2016 20.589C20.2016 20.1453 19.8421 19.7856 19.3985 19.7856H10.8711C11.6215 17.3623 13.8825 15.5973 16.5483 15.5973H21.7292C22.1721 15.5973 22.5323 15.9576 22.5323 16.4007V25.72C22.5323 26.1628 22.1721 26.5234 21.7292 26.5234H11.4097C11.4097 26.5234 11.4094 26.5234 11.4091 26.5234C10.9664 26.5234 10.6063 26.1628 10.6063 25.72V21.5408ZM13.3486 28.1302H15.1864C14.8005 28.3505 14.4281 28.5918 14.0698 28.8517L13.3486 28.1302ZM22.0109 40.3402C22.0109 42.0132 20.6584 43.3755 18.99 43.3921C18.9797 43.3918 18.9693 43.3905 18.959 43.3905H18.8664C17.2262 43.3413 15.907 41.9925 15.907 40.3402C15.907 40.2852 15.9014 40.2313 15.891 40.1795H22.0269C22.0165 40.2313 22.0109 40.2852 22.0109 40.3402ZM13.8785 38.5727C14.0774 37.2964 14.7475 36.1434 15.7825 35.3303C15.785 35.3287 15.7872 35.3265 15.7897 35.3249C16.7014 34.6101 17.7972 34.2319 18.959 34.2319C21.5215 34.2319 23.652 36.1164 24.0388 38.5727H13.8785ZM43.2138 17.8986H44.017V19.5054H43.2138C42.7708 19.5054 42.4107 19.1451 42.4107 18.702C42.4107 18.2592 42.7708 17.8986 43.2138 17.8986ZM31.4076 19.3742C31.4076 19.1084 31.6238 18.8922 31.8895 18.8922H33.659V19.4571C33.659 19.5939 33.6728 19.7273 33.6988 19.8562H31.8895C31.6238 19.8562 31.4076 19.64 31.4076 19.3742ZM36.8267 19.8562H35.6643C35.4444 19.8562 35.2652 19.6774 35.2652 19.4571V18.0059C35.2652 17.7859 35.4444 17.6067 35.6643 17.6067H40.4053C40.6253 17.6067 40.8044 17.7859 40.8044 18.0059V19.4571C40.8044 19.6774 40.6253 19.8562 40.4053 19.8562H36.8267ZM46.7477 40.3402C46.7477 42.0132 45.3952 43.3755 43.7268 43.3921C43.7164 43.3918 43.7061 43.3905 43.6957 43.3905H43.6032C41.963 43.3413 40.6438 41.9925 40.6438 40.3402C40.6438 39.7018 40.8427 39.0849 41.2091 38.5702H46.1823C46.5488 39.0849 46.7477 39.7018 46.7477 40.3402ZM39.3076 36.9634L42.3702 31.507C45.4978 31.5644 48.0728 33.9259 48.4631 36.9634H39.3076Z" fill="#F53838"/>
<path d="M36.8262 27.0993C37.2698 27.0993 37.6293 26.7397 37.6293 26.296C37.6293 25.8523 37.2698 25.4927 36.8262 25.4927H36.8234C36.3798 25.4927 36.0215 25.8523 36.0215 26.296C36.0215 26.7397 36.3826 27.0993 36.8262 27.0993Z" fill="#F53838"/>
</svg>
