<svg width="60" height="60" viewBox="0 0 60 60" fill="none" xmlns="http://www.w3.org/2000/svg">
<rect y="-0.000976562" width="60" height="60" rx="20" fill="#FFD0D0"/>
<path d="M29.9576 20.7554C24.3754 20.7554 19.834 25.2982 19.834 30.8822C19.834 36.4661 24.3754 41.009 29.9576 41.009C35.5397 41.009 40.0812 36.4661 40.0812 30.8822C40.0812 25.2982 35.5398 20.7554 29.9576 20.7554ZM29.9576 39.6724C25.1121 39.6724 21.1701 35.7291 21.1701 30.8821C21.1701 26.0352 25.1121 22.0919 29.9576 22.0919C34.803 22.0919 38.7451 26.0351 38.7451 30.8821C38.7451 35.7291 34.803 39.6724 29.9576 39.6724Z" fill="#F53838"/>
<path d="M35.9513 27.6148C35.7744 27.2909 35.3686 27.1717 35.0448 27.3485C35.0339 27.3545 35.0239 27.3613 35.0135 27.3677C34.7139 27.5532 34.6076 27.9422 34.7785 28.2553C35.2152 29.0553 35.4459 29.9635 35.4459 30.8815C35.4459 33.9082 32.9843 36.3707 29.9585 36.3707C26.9326 36.3707 24.471 33.9081 24.471 30.8815C24.471 27.8547 26.9327 25.3922 29.9585 25.3922C30.2488 25.3922 30.5402 25.4151 30.8245 25.4602C31.1771 25.5162 31.5074 25.2853 31.5814 24.9407C31.584 24.9288 31.587 24.917 31.5889 24.9047C31.6466 24.5402 31.398 24.1978 31.0336 24.1401C30.6803 24.0841 30.3186 24.0557 29.9584 24.0557C26.1959 24.0557 23.1348 27.1177 23.1348 30.8815C23.1348 34.6452 26.1958 37.7072 29.9584 37.7072C33.721 37.7072 36.7821 34.6451 36.7821 30.8815C36.7821 29.7403 36.4948 28.6107 35.9513 27.6148Z" fill="#F53838"/>
<path d="M34.2263 25.2975C34.1955 25.2667 34.1615 25.2387 34.1247 25.2146C34.0887 25.1906 34.0499 25.1699 34.0092 25.1532C33.9691 25.1365 33.927 25.1238 33.8842 25.1151C33.798 25.0977 33.7092 25.0977 33.623 25.1151C33.5802 25.1238 33.5388 25.1365 33.4981 25.1532C33.458 25.1699 33.4192 25.1906 33.3832 25.2146C33.3464 25.2387 33.3123 25.2667 33.2809 25.2975C33.2502 25.3282 33.2228 25.3623 33.1981 25.399C33.1741 25.4351 33.1533 25.4739 33.1366 25.5146C33.1261 25.5399 33.1177 25.5661 33.1105 25.5926C33.1062 25.6082 33.1018 25.6237 33.0986 25.6396C33.09 25.6823 33.0859 25.7264 33.0859 25.7698C33.0859 25.8139 33.0899 25.8574 33.0986 25.9008C33.1073 25.9436 33.12 25.985 33.1367 26.0257C33.1534 26.0658 33.1741 26.1046 33.1982 26.1407C33.2229 26.1774 33.2503 26.2115 33.281 26.2422C33.3124 26.2729 33.3465 26.301 33.3832 26.3257C33.4193 26.3498 33.4581 26.3705 33.4981 26.3872C33.5389 26.4039 33.5803 26.4166 33.6231 26.4253C33.6665 26.434 33.7106 26.4379 33.754 26.4379C33.7974 26.4379 33.8415 26.4339 33.8843 26.4253C33.927 26.4167 33.9691 26.4039 34.0092 26.3872C34.0442 26.3728 34.0773 26.3551 34.1089 26.3352C34.1141 26.3319 34.1197 26.3291 34.1247 26.3257C34.1615 26.301 34.1955 26.2729 34.2263 26.2422C34.257 26.2115 34.2851 26.1774 34.3091 26.1407C34.3332 26.1046 34.3539 26.0658 34.3706 26.0257C34.3873 25.985 34.4 25.9429 34.4087 25.9008C34.4173 25.8574 34.422 25.8139 34.422 25.7698C34.422 25.5941 34.3505 25.4217 34.2263 25.2975Z" fill="#F53838"/>
<path d="M47.0256 40.4517L44.8587 22.7992C44.7079 21.5706 44.3222 20.4014 43.7123 19.3243C43.3379 18.663 42.8831 18.0481 42.3605 17.4966L42.3022 17.4351C41.857 16.9652 41.191 16.84 40.6054 17.116C40.0199 17.392 39.6925 17.9857 39.7714 18.6283L42.5181 41.0054C42.5269 41.0772 42.539 41.1478 42.5542 41.2172C42.7824 42.2573 43.7111 43.0002 44.7702 43.0001C44.862 43.0001 44.9551 42.9945 45.0485 42.983C45.7863 42.8924 46.3988 42.4553 46.7426 41.8548C46.7788 41.7916 46.812 41.7266 46.8421 41.66C46.8722 41.5934 46.8991 41.5252 46.9227 41.4556C47.0292 41.1424 47.0685 40.8013 47.0256 40.4517ZM41.0977 18.4654C41.0944 18.4386 41.0856 18.3671 41.1751 18.325C41.1996 18.3134 41.2211 18.3089 41.2398 18.3089C41.2893 18.3089 41.3191 18.3403 41.3324 18.3545L41.3908 18.416C41.8389 18.8889 42.2288 19.4161 42.5498 19.9829C43.0727 20.9064 43.4034 21.9087 43.5326 22.962L44.6875 32.3702L42.8324 32.598L41.0977 18.4654ZM45.6416 41.0702C45.5198 41.3787 45.2374 41.6132 44.8858 41.6563C44.3741 41.7196 43.9072 41.3541 43.8444 40.8424L42.9952 33.9246L44.8503 33.6968L45.6994 40.6146C45.7191 40.7744 45.6968 40.93 45.6416 41.0702Z" fill="#F53838"/>
<path d="M21.0751 17.613C20.7087 17.5678 20.3755 17.8286 20.3306 18.1949L19.723 23.145C19.6282 23.9165 19.005 24.4985 18.2337 24.5455L17.7908 24.4911L18.5899 17.9812C18.6349 17.6149 18.3745 17.2814 18.0082 17.2363C17.6419 17.191 17.3087 17.4519 17.2637 17.8182L16.4646 24.3282L16.0214 24.2738C15.2845 24.0414 14.8206 23.3259 14.9153 22.5545L15.5229 17.6044C15.5679 17.2381 15.3074 16.9047 14.9412 16.8596C14.575 16.8142 14.2417 17.0752 14.1967 17.4415L13.5891 22.3916C13.4371 23.6301 14.069 24.7913 15.135 25.3483L12.8622 39.9796C12.8619 39.9812 12.8617 39.9829 12.8614 39.9846C12.7692 40.61 12.9293 41.2315 13.3123 41.7343C13.6953 42.2372 14.2518 42.5567 14.8785 42.6337L14.8907 42.6351C14.9875 42.647 15.0841 42.6529 15.18 42.6529C15.7084 42.6529 16.2163 42.4742 16.6346 42.1366C17.129 41.7377 17.4329 41.1696 17.4906 40.5369L18.834 25.8027C20.0031 25.5204 20.8972 24.5465 21.0492 23.3079L21.6569 18.3578C21.7017 17.9915 21.4413 17.658 21.0751 17.613ZM16.16 40.4156C16.1355 40.6849 16.0061 40.9266 15.7957 41.0964C15.5854 41.2662 15.322 41.342 15.054 41.3086L15.0419 41.3072C14.7749 41.2744 14.5381 41.1385 14.3751 40.9244C14.2125 40.711 14.1443 40.4474 14.1829 40.1819L16.4371 25.6715L16.9643 25.7363C16.9645 25.7363 16.9647 25.7364 16.965 25.7364C16.9652 25.7364 16.9654 25.7364 16.9656 25.7364L17.4924 25.8011L16.16 40.4156Z" fill="#F53838"/>
</svg>
