<svg width="60" height="60" viewBox="0 0 60 60" fill="none" xmlns="http://www.w3.org/2000/svg">
<rect width="60" height="60" rx="20" fill="#FFF8D3"/>
<path d="M16.4112 46.6636C16.2804 46.5327 16.099 46.4575 15.9141 46.4575C15.7284 46.4575 15.5477 46.5327 15.417 46.6636C15.2855 46.7944 15.2109 46.9758 15.2109 47.1608C15.2109 47.3457 15.2855 47.5271 15.417 47.6579C15.5477 47.7887 15.7285 47.864 15.9141 47.864C16.099 47.864 16.2804 47.7888 16.4112 47.6579C16.5419 47.5271 16.6172 47.3457 16.6172 47.1608C16.6172 46.9758 16.542 46.7944 16.4112 46.6636Z" fill="#F53838"/>
<path d="M38.2314 41.6934C38.1007 41.5625 37.9193 41.4873 37.7344 41.4873C37.5495 41.4873 37.368 41.5625 37.2373 41.6934C37.1065 41.8243 37.0312 42.0057 37.0312 42.1907C37.0312 42.3764 37.1064 42.5571 37.2373 42.6879C37.368 42.8187 37.5495 42.894 37.7344 42.894C37.9193 42.894 38.1007 42.8188 38.2314 42.6879C38.3622 42.5571 38.4375 42.3763 38.4375 42.1907C38.4375 42.0057 38.3623 41.8242 38.2314 41.6934Z" fill="#F53838"/>
<path d="M47.38 24.8057C46.7835 23.813 46.5938 22.295 46.5938 21.1368V20.5742C46.5938 18.9453 45.269 17.6201 43.6406 17.6201C42.0123 17.6201 40.6875 18.9453 40.6875 20.5742V21.1368C40.6875 22.2951 40.4978 23.8132 39.9011 24.8059C39.8838 24.8347 39.8669 24.8637 39.8502 24.8929C39.4093 25.6666 38.6838 26.3416 37.7932 26.3416H36.1172C34.9541 26.3416 34.0078 27.2881 34.0078 28.4516C34.0078 28.8014 33.7615 29.1549 33.4116 29.1549H26.5884C26.2385 29.1549 25.9922 28.8014 25.9922 28.4516C25.9922 27.2881 25.0459 26.3416 23.8828 26.3416H22.2067C21.3162 26.3416 20.5907 25.6666 20.1498 24.8929C20.1331 24.8637 20.1162 24.8347 20.0989 24.8059C19.5023 23.8132 19.3125 22.2951 19.3125 21.1368V20.5742C19.3125 18.9453 17.9877 17.6201 16.3594 17.6201C14.731 17.6201 13.4062 18.9453 13.4062 20.5742V21.1368C13.4062 22.295 13.2165 23.813 12.62 24.8057C12.2265 25.4605 12 26.2267 12 27.0449V34.0783V34.9341C12 37.1382 13.7926 38.9314 15.9961 38.9314C19.0703 38.9314 21.5625 41.4235 21.5625 44.4978V45.6483C21.5625 46.046 21.2856 46.4571 20.8879 46.4571H18.9375C18.5493 46.4571 18.2344 46.7721 18.2344 47.1605C18.2344 47.5489 18.5493 47.8638 18.9375 47.8638H44.0859C44.4742 47.8638 44.789 47.5489 44.789 47.1605C44.789 46.7721 44.4742 46.4571 44.0859 46.4571H39.1121C38.7144 46.4571 38.4375 46.046 38.4375 45.6483V44.8394C38.4375 44.4511 38.1226 44.1361 37.7344 44.1361C37.3461 44.1361 37.0312 44.4511 37.0312 44.8394V45.6483C37.0312 46.0943 36.6685 46.4571 36.2227 46.4571C35.7768 46.4571 35.4141 46.0943 35.4141 45.6483V36.7686C35.4141 35.673 36.3051 34.7817 37.4004 34.7817H39.9844H40.5469H46.4413C46.5255 34.7817 46.5938 34.8499 46.5938 34.9341C46.5938 36.3626 45.432 37.5247 44.0039 37.5247H37.7344C37.3461 37.5247 37.0312 37.8396 37.0312 38.228V39.3534C37.0312 39.7418 37.3461 40.0567 37.7344 40.0567C38.1226 40.0567 38.4375 39.7418 38.4375 39.3534C38.4375 39.1203 38.6264 38.9314 38.8595 38.9314H44.0039C46.2074 38.9314 48 37.1382 48 34.9341V34.0783V27.0449C48 26.2267 47.7735 25.4605 47.38 24.8057ZM42.0938 20.5742C42.0938 19.7209 42.7877 19.0268 43.6406 19.0268C44.4936 19.0268 45.1875 19.7209 45.1875 20.5742V21.1368C45.1875 21.99 44.4936 22.6842 43.6406 22.6842C42.7877 22.6842 42.0938 21.99 42.0938 21.1368V20.5742ZM14.8125 20.5742C14.8125 19.7209 15.5064 19.0268 16.3594 19.0268C17.2123 19.0268 17.9062 19.7209 17.9062 20.5742V21.1368C17.9062 21.99 17.2123 22.6842 16.3594 22.6842C15.5064 22.6842 14.8125 21.99 14.8125 21.1368V20.5742ZM13.4062 27.0449C13.4062 25.416 14.731 24.0909 16.3594 24.0909C17.9877 24.0909 19.3125 25.416 19.3125 27.0449C19.3125 27.4333 19.6274 27.7482 20.0156 27.7482H23.8828C24.2705 27.7482 24.5859 28.0638 24.5859 28.4516C24.5859 28.8394 24.2705 29.1549 23.8828 29.1549H19.7882C18.6702 29.1549 17.6478 28.5425 17.1198 27.5567C16.9365 27.2143 16.5103 27.0854 16.168 27.2689C15.8257 27.4523 15.6969 27.8786 15.8803 28.221C16.5463 29.4646 17.7496 30.3024 19.1168 30.5108C19.236 30.529 19.3125 30.652 19.3125 30.7726C19.3125 32.2099 18.1474 33.375 16.7101 33.375H16.3594C14.7284 33.375 13.4062 32.0528 13.4062 30.4218V27.0449ZM21.7687 32.5725C21.8513 32.9474 21.6007 33.375 21.2168 33.375C20.9418 33.375 20.7188 33.152 20.7188 32.8769V30.7726C20.7188 30.6664 20.7946 30.5616 20.9008 30.5616H21.3001C21.647 30.5616 21.8727 30.9466 21.7879 31.283C21.7326 31.5024 21.7031 31.7319 21.7031 31.9683C21.7031 32.1757 21.7258 32.3779 21.7687 32.5725ZM24.5859 45.6483C24.5859 46.0943 24.2232 46.4571 23.7773 46.4571C23.3315 46.4571 22.9688 46.0943 22.9688 45.6483V38.228C22.9688 37.8396 22.6539 37.5247 22.2656 37.5247H15.9961C14.568 37.5247 13.4062 36.3626 13.4062 34.9341C13.4062 34.8499 13.4745 34.7817 13.5587 34.7817H19.4531H20.0156H22.5996C23.6949 34.7817 24.5859 35.673 24.5859 36.7686V45.6483ZM27.8906 45.6259C27.8906 46.085 27.5185 46.4571 27.0594 46.4571H26.6668C26.2692 46.4571 25.9922 46.046 25.9922 45.6483V36.7686C25.9922 36.62 25.9826 36.4736 25.9639 36.33C25.8735 35.6342 26.3297 34.7817 27.0313 34.7817C27.5059 34.7817 27.8906 35.1664 27.8906 35.6409V45.6259ZM30.7031 45.754C30.7031 46.1423 30.3883 46.4571 30 46.4571C29.6117 46.4571 29.2969 46.1423 29.2969 45.754V35.4848C29.2969 35.0965 29.6117 34.7817 30 34.7817C30.3883 34.7817 30.7031 35.0965 30.7031 35.4848V45.754ZM34.0078 45.6483C34.0078 46.046 33.7309 46.4571 33.3332 46.4571H32.9408C32.4816 46.4571 32.1094 46.0849 32.1094 45.6257V35.641C32.1094 35.1664 32.4941 34.7817 32.9687 34.7817C33.6704 34.7817 34.1265 35.6342 34.0361 36.33C34.0174 36.4736 34.0078 36.62 34.0078 36.7686V45.6483ZM35.4844 33.375H24.5156C23.7402 33.375 23.1094 32.7439 23.1094 31.9683C23.1094 31.1926 23.7402 30.5616 24.5156 30.5616H35.4844C36.2598 30.5616 36.8906 31.1926 36.8906 31.9683C36.8906 32.7439 36.2598 33.375 35.4844 33.375ZM39.2812 30.7726V32.8768C39.2812 33.1519 39.0582 33.375 38.7831 33.375C38.3992 33.375 38.1486 32.9474 38.2313 32.5726C38.2742 32.3779 38.2969 32.1757 38.2969 31.9683C38.2969 31.732 38.2675 31.5024 38.2122 31.2831C38.1274 30.9466 38.353 30.5616 38.6999 30.5616H39.0992C39.2054 30.5616 39.2812 30.6664 39.2812 30.7726ZM46.5938 30.4218C46.5938 32.0528 45.2716 33.375 43.6406 33.375H43.2899C41.8526 33.375 40.6875 32.2099 40.6875 30.7726C40.6875 30.652 40.764 30.529 40.8832 30.5108C42.2504 30.3024 43.4537 29.4646 44.1197 28.221C44.3031 27.8786 44.1743 27.4523 43.832 27.2689C43.4896 27.0855 43.0636 27.2145 42.8802 27.5567C42.3522 28.5425 41.3298 29.1549 40.2118 29.1549H36.1172C35.7295 29.1549 35.4141 28.8394 35.4141 28.4516C35.4141 28.0638 35.7295 27.7482 36.1172 27.7482H39.9844C40.3726 27.7482 40.6875 27.4333 40.6875 27.0449C40.6875 25.416 42.0123 24.0909 43.6406 24.0909C45.269 24.0909 46.5938 25.416 46.5938 27.0449V30.4218Z" fill="#F53838"/>
<path d="M35.0625 11.853H24.9375C23.7744 11.853 22.8281 12.7996 22.8281 13.963V20.8558C22.8281 22.0192 23.7744 22.9658 24.9375 22.9658C26.5067 22.9658 28.0117 23.5893 29.1212 24.6991L29.5027 25.0808C29.6401 25.2181 29.82 25.2868 30 25.2868C30.18 25.2868 30.3599 25.2181 30.4972 25.0808L30.8788 24.699C31.9883 23.5893 33.4932 22.9658 35.0625 22.9658C36.2256 22.9658 37.1719 22.0192 37.1719 20.8558V13.963C37.1719 12.7996 36.2256 11.853 35.0625 11.853ZM35.7656 20.8558C35.7656 21.2436 35.4502 21.5591 35.0625 21.5591H32.3203C32.1338 21.5591 31.955 21.6332 31.8231 21.7651C30.8163 22.7722 29.1837 22.7721 28.1769 21.765C28.045 21.6332 27.8662 21.5591 27.6797 21.5591H24.9375C24.5498 21.5591 24.2344 21.2436 24.2344 20.8558V13.963C24.2344 13.5752 24.5498 13.2597 24.9375 13.2597H35.0625C35.4502 13.2597 35.7656 13.5752 35.7656 13.963V20.8558Z" fill="#F53838"/>
<path d="M27.1924 16.6426C27.0616 16.5111 26.8802 16.4365 26.6953 16.4365C26.5104 16.4365 26.329 16.5111 26.1982 16.6426C26.0674 16.7734 25.9922 16.9549 25.9922 17.1399C25.9922 17.3249 26.0674 17.5063 26.1982 17.6372C26.329 17.768 26.5104 17.8432 26.6953 17.8432C26.8802 17.8432 27.0616 17.768 27.1924 17.6372C27.3231 17.5063 27.3984 17.3249 27.3984 17.1399C27.3984 16.9549 27.3232 16.7734 27.1924 16.6426Z" fill="#F53838"/>
<path d="M30.497 16.6426C30.3663 16.5119 30.1849 16.4365 30 16.4365C29.8151 16.4365 29.6337 16.5118 29.5029 16.6426C29.3721 16.7734 29.2969 16.9549 29.2969 17.1399C29.2969 17.3249 29.372 17.5063 29.5029 17.6372C29.6337 17.768 29.8151 17.8432 30 17.8432C30.1849 17.8432 30.3663 17.768 30.497 17.6372C30.6278 17.5063 30.7031 17.3249 30.7031 17.1399C30.7031 16.9549 30.6279 16.7734 30.497 16.6426Z" fill="#F53838"/>
<path d="M33.8017 16.6426C33.671 16.5111 33.4896 16.4365 33.3047 16.4365C33.1198 16.4365 32.9384 16.5111 32.8076 16.6426C32.6768 16.7734 32.6016 16.9549 32.6016 17.1399C32.6016 17.3249 32.6767 17.5063 32.8076 17.6372C32.9384 17.768 33.1198 17.8432 33.3047 17.8432C33.4896 17.8432 33.671 17.768 33.8017 17.6372C33.9325 17.5063 34.0078 17.3249 34.0078 17.1399C34.0078 16.9549 33.9326 16.7734 33.8017 16.6426Z" fill="#F53838"/>
</svg>
