<svg width="54" height="54" viewBox="0 0 54 54" fill="none" xmlns="http://www.w3.org/2000/svg">
<circle cx="26" cy="28" r="26" fill="#F7F7F7"/>
<path fill-rule="evenodd" clip-rule="evenodd" d="M22.125 18.4068C22.684 17.8644 23.5903 17.8644 24.1493 18.4068C24.7083 18.9491 24.7083 19.8284 24.1493 20.3708L19.2621 25.1123H32.7378L27.8506 20.3708C27.2916 19.8284 27.2916 18.9491 27.8506 18.4068C28.4096 17.8644 29.316 17.8644 29.875 18.4068L35.9479 24.2988C36.1832 24.527 36.3194 24.815 36.3567 25.1123H38.5681C39.4714 25.1123 40.1489 25.9141 39.9717 26.7735L36.25 37.8836C36.1162 38.5327 35.5287 39 34.8464 39H17.1536C16.4713 39 15.8838 38.5327 15.75 37.8836L12.0283 26.7735C11.8511 25.9141 12.5286 25.1123 13.4319 25.1123H15.6433C15.6805 24.815 15.8168 24.527 16.052 24.2988L22.125 18.4068ZM18.8429 28.5842C18.8429 28.2007 19.1633 27.8899 19.5586 27.8899C19.9539 27.8899 20.2743 28.2007 20.2743 28.5842V35.5281C20.2743 35.9116 19.9539 36.2225 19.5586 36.2225C19.1633 36.2225 18.8429 35.9116 18.8429 35.5281V28.5842ZM23.1371 28.5842C23.1371 28.2007 23.4576 27.8899 23.8529 27.8899C24.2481 27.8899 24.5686 28.2007 24.5686 28.5842V35.5281C24.5686 35.9116 24.2481 36.2225 23.8529 36.2225C23.4576 36.2225 23.1371 35.9116 23.1371 35.5281V28.5842ZM28.1471 27.8899C27.7518 27.8899 27.4314 28.2007 27.4314 28.5842V35.5281C27.4314 35.9116 27.7518 36.2225 28.1471 36.2225C28.5424 36.2225 28.8628 35.9116 28.8628 35.5281V28.5842C28.8628 28.2007 28.5424 27.8899 28.1471 27.8899ZM31.7256 28.5842C31.7256 28.2007 32.0461 27.8899 32.4413 27.8899C32.8366 27.8899 33.157 28.2007 33.157 28.5842V35.5281C33.157 35.9116 32.8366 36.2225 32.4413 36.2225C32.0461 36.2225 31.7256 35.9116 31.7256 35.5281V28.5842Z" fill="#2E266F"/>
<circle cx="44.5" cy="9.5" r="9.5" fill="#02E538"/>
</svg>
