<svg width="199" height="153" viewBox="0 0 199 153" fill="none" xmlns="http://www.w3.org/2000/svg">
<path d="M99.6154 22.6831C67.1395 22.6831 40.7188 49.1038 40.7188 81.5797C40.7188 114.056 67.1399 140.477 99.6154 140.477C132.091 140.477 158.512 114.056 158.512 81.5797C158.512 49.1038 132.091 22.6831 99.6154 22.6831ZM99.6154 132.703C71.4258 132.703 48.4918 109.769 48.4918 81.5793C48.4918 53.3901 71.4254 30.4562 99.6154 30.4562C127.805 30.4562 150.739 53.3897 150.739 81.5793C150.739 109.769 127.805 132.703 99.6154 132.703Z" fill="white"/>
<path d="M134.481 62.5812C133.452 60.6973 131.092 60.0039 129.207 61.0324C129.144 61.067 129.086 61.1066 129.025 61.1439C127.282 62.2225 126.664 64.4853 127.658 66.3063C130.199 70.9591 131.541 76.2407 131.541 81.5795C131.541 99.1828 117.22 113.504 99.6165 113.504C82.0128 113.504 67.6918 99.1824 67.6918 81.5795C67.6918 63.9762 82.0132 49.6548 99.6165 49.6548C101.306 49.6548 103.001 49.7877 104.655 50.0501C106.706 50.3758 108.628 49.0325 109.058 47.0289C109.073 46.9593 109.091 46.8909 109.102 46.8194C109.438 44.6992 107.992 42.7081 105.871 42.3722C103.816 42.0465 101.711 41.8813 99.6161 41.8813C77.7269 41.8813 59.918 59.6899 59.918 81.5795C59.918 103.469 77.7265 121.278 99.6161 121.278C121.506 121.278 139.315 103.469 139.315 81.5795C139.315 74.9425 137.643 68.3732 134.481 62.5812Z" fill="white"/>
<path d="M124.449 49.1012C124.27 48.9224 124.072 48.7592 123.858 48.6193C123.648 48.4793 123.423 48.3589 123.186 48.2617C122.952 48.1645 122.707 48.0907 122.459 48.0401C121.957 47.9391 121.44 47.9391 120.939 48.0401C120.69 48.0907 120.449 48.1645 120.212 48.2617C119.979 48.3589 119.754 48.4793 119.544 48.6193C119.33 48.7592 119.132 48.9224 118.949 49.1012C118.77 49.28 118.611 49.4782 118.467 49.692C118.327 49.9019 118.207 50.1273 118.109 50.3644C118.048 50.5113 117.999 50.6637 117.957 50.818C117.932 50.9085 117.907 50.9991 117.888 51.0912C117.838 51.3396 117.814 51.5961 117.814 51.8487C117.814 52.1053 117.838 52.3583 117.888 52.6109C117.939 52.8597 118.013 53.1007 118.11 53.3374C118.207 53.5709 118.327 53.7964 118.467 54.0063C118.611 54.22 118.771 54.4183 118.949 54.597C119.132 54.7758 119.33 54.9391 119.544 55.0829C119.754 55.2228 119.979 55.3433 120.213 55.4405C120.45 55.5376 120.691 55.6115 120.939 55.662C121.192 55.7125 121.449 55.7355 121.701 55.7355C121.954 55.7355 122.21 55.7121 122.459 55.662C122.708 55.6119 122.953 55.5376 123.186 55.4405C123.39 55.3569 123.582 55.2535 123.766 55.1381C123.796 55.119 123.828 55.1027 123.858 55.0829C124.072 54.9391 124.27 54.7758 124.449 54.597C124.627 54.4183 124.791 54.22 124.931 54.0063C125.071 53.7964 125.191 53.5709 125.288 53.3374C125.385 53.1007 125.459 52.8558 125.51 52.6109C125.56 52.3583 125.587 52.1053 125.587 51.8487C125.587 50.8265 125.172 49.8238 124.449 49.1012Z" fill="white"/>
<path d="M198.901 137.242L186.295 34.5766C185.418 27.4313 183.174 20.6315 179.626 14.3669C177.447 10.5209 174.801 6.94478 171.761 3.73746L171.422 3.37949C168.832 0.646736 164.957 -0.0816326 161.55 1.52397C158.144 3.12919 156.24 6.58176 156.699 10.3192L172.678 140.463C172.729 140.88 172.8 141.291 172.888 141.695C174.216 147.743 179.619 152.064 185.78 152.064C186.315 152.064 186.856 152.031 187.399 151.964C191.692 151.437 195.255 148.895 197.255 145.403C197.466 145.035 197.659 144.657 197.834 144.27C198.009 143.882 198.166 143.486 198.303 143.081C198.922 141.26 199.151 139.275 198.901 137.242ZM164.414 9.37164C164.395 9.21579 164.344 8.8003 164.865 8.55504C165.008 8.4878 165.133 8.46176 165.242 8.46176C165.53 8.46176 165.703 8.64444 165.78 8.72684L166.12 9.0848C168.727 11.835 170.995 14.9009 172.862 18.1976C175.904 23.5683 177.828 29.398 178.58 35.5238L185.299 90.241L174.507 91.566L164.414 9.37164ZM190.85 140.84C190.141 142.634 188.499 143.997 186.453 144.249C183.476 144.616 180.759 142.491 180.394 139.515L175.454 99.2816L186.246 97.9566L191.186 138.19C191.3 139.119 191.171 140.024 190.85 140.84Z" fill="white"/>
<path d="M47.9335 4.41139C45.802 4.14864 43.8637 5.66524 43.6021 7.79555L40.0672 36.5853C39.516 41.0721 35.8901 44.457 31.4029 44.7306L28.8264 44.4143L33.4753 6.55258C33.7369 4.42227 32.2218 2.4828 30.0911 2.22083C27.96 1.95692 26.0213 3.47469 25.7598 5.605L21.1108 43.4667L18.532 43.1503C14.245 41.7985 11.5464 37.6374 12.0972 33.1509L15.6321 4.36163C15.8937 2.23132 14.3787 0.291852 12.248 0.0298871C10.1177 -0.23441 8.17818 1.28374 7.9166 3.41405L4.38163 32.2034C3.4974 39.4066 7.17385 46.1602 13.3755 49.3994L0.152883 134.494C0.151329 134.503 0.149774 134.513 0.148219 134.523C-0.388537 138.161 0.54311 141.775 2.77137 144.7C4.99962 147.625 8.23687 149.482 11.8834 149.93L11.9541 149.939C12.5173 150.008 13.0793 150.042 13.6371 150.042C16.7111 150.042 19.6662 149.003 22.1 147.039C24.9758 144.719 26.7443 141.415 27.0797 137.736L34.8951 52.0423C41.6969 50.4002 46.8988 44.7365 47.7831 37.5328L51.318 8.74313C51.5792 6.61282 50.0642 4.67335 47.9335 4.41139ZM19.3389 137.03C19.1959 138.596 18.4434 140.002 17.2195 140.99C15.9955 141.977 14.4634 142.418 12.9044 142.224L12.8337 142.215C11.2806 142.025 9.90272 141.234 8.95475 139.989C8.00872 138.748 7.61189 137.215 7.83654 135.671L20.9507 51.2794L24.0177 51.656C24.0193 51.656 24.0204 51.6564 24.022 51.6568C24.0232 51.6568 24.0243 51.6568 24.0255 51.6568L27.0902 52.033L19.3389 137.03Z" fill="white"/>
</svg>
