<svg width="155" height="155" viewBox="0 0 155 155" fill="none" xmlns="http://www.w3.org/2000/svg">
<path d="M18.9938 149.832C18.4308 149.269 17.6497 148.945 16.8535 148.945C16.0543 148.945 15.2763 149.269 14.7132 149.832C14.1471 150.395 13.8262 151.176 13.8262 151.973C13.8262 152.769 14.1471 153.55 14.7132 154.113C15.2763 154.676 16.0546 155 16.8535 155C17.6497 155 18.4308 154.676 18.9938 154.113C19.5566 153.55 19.8809 152.769 19.8809 151.973C19.8809 151.176 19.5569 150.395 18.9938 149.832Z" fill="white"/>
<path d="M112.941 128.438C112.378 127.875 111.597 127.551 110.801 127.551C110.005 127.551 109.224 127.875 108.66 128.438C108.097 129.002 107.773 129.782 107.773 130.579C107.773 131.378 108.097 132.156 108.66 132.719C109.224 133.282 110.005 133.606 110.801 133.606C111.597 133.606 112.378 133.282 112.941 132.719C113.504 132.156 113.828 131.378 113.828 130.579C113.828 129.782 113.504 129.001 112.941 128.438Z" fill="white"/>
<path d="M152.33 55.7516C149.762 51.4795 148.945 44.9455 148.945 39.9609V37.5391C148.945 30.528 143.242 24.8242 136.23 24.8242C129.219 24.8242 123.516 30.528 123.516 37.5391V39.9609C123.516 44.946 122.699 51.4804 120.13 55.7528C120.056 55.8772 119.982 56.0025 119.91 56.1287C118.012 59.4585 114.89 62.3633 111.057 62.3633H103.838C98.8301 62.3633 94.7559 66.4375 94.7559 71.4453C94.7559 72.9511 93.6956 74.4727 92.1898 74.4727H62.8102C61.3044 74.4727 60.2441 72.9511 60.2441 71.4453C60.2441 66.4375 56.1699 62.3633 51.1621 62.3633H43.9429C40.1102 62.3633 36.9879 59.4586 35.0898 56.1288C35.0178 56.0025 34.9444 55.8772 34.8696 55.7527C32.3011 51.4804 31.4844 44.9459 31.4844 39.9609V37.5391C31.4844 30.528 25.7806 24.8242 18.7695 24.8242C11.7585 24.8242 6.05469 30.528 6.05469 37.5391V39.9609C6.05469 44.9455 5.23809 51.4795 2.66991 55.7516C0.975314 58.5705 0 61.8686 0 65.3906V95.6641V99.3474C0 108.835 7.71821 116.553 17.2053 116.553H31.1719C36.6947 116.553 41.1719 121.03 41.1719 126.553V145.464C41.1719 147.176 39.98 148.945 38.2682 148.945H29.8699C28.1982 148.945 26.8425 150.301 26.8425 151.973C26.8425 153.644 28.1982 155 29.8699 155H138.148C139.819 155 141.175 153.644 141.175 151.973C141.175 150.301 139.819 148.945 138.148 148.945H116.732C115.02 148.945 113.828 147.176 113.828 145.464V141.982C113.828 140.311 112.472 138.955 110.801 138.955C109.129 138.955 107.773 140.311 107.773 141.982V145.464C107.773 147.384 106.212 148.945 104.292 148.945C102.372 148.945 100.811 147.384 100.811 145.464V107.244C100.811 102.528 104.647 98.6914 109.363 98.6914H120.488H122.91H148.289C148.652 98.6914 148.945 98.9851 148.945 99.3474C148.945 105.496 143.943 110.498 137.795 110.498H110.801C109.129 110.498 107.773 111.854 107.773 113.525V118.369C107.773 120.041 109.129 121.396 110.801 121.396C112.472 121.396 113.828 120.041 113.828 118.369C113.828 117.366 114.641 116.553 115.645 116.553H137.795C147.282 116.553 155 108.835 155 99.3474V95.6641V65.3906C155 61.8686 154.025 58.5705 152.33 55.7516ZM129.57 37.5391C129.57 33.8666 132.558 30.8789 136.23 30.8789C139.903 30.8789 142.891 33.8666 142.891 37.5391V39.9609C142.891 43.6334 139.903 46.6211 136.23 46.6211C132.558 46.6211 129.57 43.6334 129.57 39.9609V37.5391ZM12.1094 37.5391C12.1094 33.8666 15.0971 30.8789 18.7695 30.8789C22.442 30.8789 25.4297 33.8666 25.4297 37.5391V39.9609C25.4297 43.6334 22.442 46.6211 18.7695 46.6211C15.0971 46.6211 12.1094 43.6334 12.1094 39.9609V37.5391ZM6.05469 65.3906C6.05469 58.3796 11.7585 52.6758 18.7695 52.6758C25.7806 52.6758 31.4844 58.3796 31.4844 65.3906C31.4844 67.0623 32.84 68.418 34.5117 68.418H51.1621C52.8314 68.418 54.1895 69.776 54.1895 71.4453C54.1895 73.1146 52.8314 74.4727 51.1621 74.4727H33.5324C28.7189 74.4727 24.3168 71.8367 22.0436 67.5936C21.2544 66.1199 19.4192 65.565 17.9455 66.3548C16.4718 67.1441 15.9172 68.9789 16.7067 70.4529C19.5742 75.8056 24.7554 79.4118 30.6421 80.3087C31.1552 80.3869 31.4844 80.9166 31.4844 81.4355V82.6367C31.4844 88.1596 27.0072 92.6367 21.4844 92.6367H16.0547C10.5318 92.6367 6.05469 88.1596 6.05469 82.6367V65.3906ZM42.0594 89.1816C42.4152 90.7956 41.3362 92.6367 39.6834 92.6367C38.4991 92.6367 37.5391 91.6767 37.5391 90.4923V81.4355C37.5391 80.9785 37.8656 80.5273 38.3227 80.5273H40.0421C41.5357 80.5273 42.507 82.1851 42.142 83.6334C41.904 84.5774 41.7773 85.5651 41.7773 86.582C41.7773 87.4743 41.8748 88.3441 42.0594 89.1816ZM54.1895 145.464C54.1895 147.384 52.6276 148.945 50.708 148.945C48.7884 148.945 47.2266 147.384 47.2266 145.464V113.525C47.2266 111.854 45.8709 110.498 44.1992 110.498H17.2053C11.0568 110.498 6.05469 105.496 6.05469 99.3474C6.05469 98.9851 6.3484 98.6914 6.71071 98.6914H32.0898H34.5117H45.6372C50.3529 98.6914 54.1895 102.528 54.1895 107.244V145.464ZM68.418 145.366C68.418 147.343 66.8157 148.945 64.8391 148.945H63.1478C61.4362 148.945 60.2441 147.175 60.2441 145.464V107.244C60.2441 106.605 60.2028 105.976 60.1227 105.358C59.7339 102.363 61.6979 98.6914 64.7187 98.6914C66.7617 98.6914 68.418 100.348 68.418 102.391V145.366ZM80.5273 145.918C80.5273 147.59 79.172 148.945 77.5 148.945C75.828 148.945 74.4727 147.59 74.4727 145.918V101.719C74.4727 100.047 75.828 98.6914 77.5 98.6914C79.172 98.6914 80.5273 100.047 80.5273 101.719V145.918ZM94.7559 145.464C94.7559 147.176 93.564 148.945 91.8522 148.945H90.1614C88.1846 148.945 86.582 147.343 86.582 145.366V102.391C86.582 100.348 88.2384 98.6914 90.2815 98.6914C93.3024 98.6914 95.2663 102.362 94.8774 105.358C94.7972 105.975 94.7559 106.605 94.7559 107.244V145.464ZM101.113 92.6367H53.8867C50.5482 92.6367 47.832 89.9206 47.832 86.582C47.832 83.2435 50.5482 80.5273 53.8867 80.5273H101.113C104.452 80.5273 107.168 83.2435 107.168 86.582C107.168 89.9206 104.452 92.6367 101.113 92.6367ZM117.461 81.4355V90.4921C117.461 91.6766 116.501 92.6367 115.316 92.6367C113.664 92.6367 112.585 90.7958 112.94 89.1818C113.125 88.3442 113.223 87.4744 113.223 86.582C113.223 85.5652 113.096 84.5775 112.858 83.6336C112.493 82.1852 113.464 80.5273 114.958 80.5273H116.677C117.134 80.5273 117.461 80.9785 117.461 81.4355ZM148.945 82.6367C148.945 88.1596 144.468 92.6367 138.945 92.6367H133.516C127.993 92.6367 123.516 88.1596 123.516 82.6367V81.4355C123.516 80.9166 123.845 80.3869 124.358 80.3087C130.245 79.4118 135.426 75.8056 138.293 70.4529C139.083 68.9789 138.528 67.1441 137.055 66.3548C135.58 65.5653 133.746 66.1205 132.956 67.5936C130.683 71.8367 126.281 74.4727 121.468 74.4727H103.838C102.169 74.4727 100.811 73.1146 100.811 71.4453C100.811 69.776 102.169 68.418 103.838 68.418H120.488C122.16 68.418 123.516 67.0623 123.516 65.3906C123.516 58.3796 129.219 52.6758 136.23 52.6758C143.242 52.6758 148.945 58.3796 148.945 65.3906V82.6367Z" fill="white"/>
<path d="M99.2969 0H55.7031C50.6953 0 46.6211 4.0742 46.6211 9.08203V38.75C46.6211 43.7578 50.6953 47.832 55.7031 47.832H62.1134C64.7656 47.832 67.3091 48.8856 69.1845 50.761L75.3591 56.9356C75.9506 57.5265 76.725 57.8223 77.5 57.8223C78.275 57.8223 79.0494 57.5265 79.6406 56.9356L85.8156 50.7608C87.6909 48.8856 90.2344 47.832 92.8865 47.832H99.2969C104.305 47.832 108.379 43.7578 108.379 38.75V9.08203C108.379 4.0742 104.305 0 99.2969 0ZM102.324 38.75C102.324 40.4193 100.966 41.7773 99.2969 41.7773H87.4902C86.6874 41.7773 85.9175 42.0964 85.3496 42.6641L84.5711 43.4426C80.6658 47.3477 74.3343 47.3476 70.4291 43.4424L69.6504 42.6637C69.0825 42.0964 68.3126 41.7773 67.5098 41.7773H55.7031C54.0338 41.7773 52.6758 40.4193 52.6758 38.75V9.08203C52.6758 7.41275 54.0338 6.05469 55.7031 6.05469H99.2969C100.966 6.05469 102.324 7.41275 102.324 9.08203V38.75Z" fill="white"/>
<path d="M65.4115 20.6163C64.8487 20.0501 64.0677 19.7292 63.2715 19.7292C62.4753 19.7292 61.6942 20.0501 61.1312 20.6163C60.5681 21.1793 60.2441 21.9604 60.2441 22.7566C60.2441 23.5528 60.5678 24.3338 61.1312 24.8969C61.6942 25.46 62.4753 25.7839 63.2715 25.7839C64.0677 25.7839 64.8487 25.46 65.4115 24.8969C65.9746 24.3338 66.2988 23.5528 66.2988 22.7566C66.2988 21.9604 65.9749 21.1793 65.4115 20.6163Z" fill="white"/>
<path d="M79.64 20.6163C79.0772 20.0535 78.2962 19.7292 77.5 19.7292C76.7038 19.7292 75.9228 20.0532 75.3597 20.6163C74.7966 21.1793 74.4727 21.9604 74.4727 22.7566C74.4727 23.5528 74.7963 24.3338 75.3597 24.8969C75.9228 25.46 76.7038 25.7839 77.5 25.7839C78.2962 25.7839 79.0772 25.46 79.64 24.8969C80.2031 24.3338 80.5273 23.5528 80.5273 22.7566C80.5273 21.9604 80.2034 21.1793 79.64 20.6163Z" fill="white"/>
<path d="M93.8685 20.6163C93.3058 20.0501 92.5247 19.7292 91.7285 19.7292C90.9323 19.7292 90.1513 20.0501 89.5882 20.6163C89.0251 21.1793 88.7012 21.9604 88.7012 22.7566C88.7012 23.5528 89.0248 24.3338 89.5882 24.8969C90.1513 25.46 90.9323 25.7839 91.7285 25.7839C92.5247 25.7839 93.3058 25.46 93.8685 24.8969C94.4316 24.3338 94.7559 23.5528 94.7559 22.7566C94.7559 21.9604 94.4319 21.1793 93.8685 20.6163Z" fill="white"/>
</svg>
