<svg width="201" height="151" viewBox="0 0 201 151" fill="none" xmlns="http://www.w3.org/2000/svg">
<path d="M85.4902 143.164C84.4602 143.164 83.4516 143.583 82.7242 144.31C81.9968 145.037 81.5781 146.047 81.5781 147.076C81.5781 148.104 81.9968 149.114 82.7242 149.842C83.4516 150.569 84.4602 150.988 85.4902 150.988C86.5186 150.988 87.5272 150.569 88.2562 149.842C88.9836 149.114 89.4023 148.109 89.4023 147.076C89.4023 146.047 88.9836 145.037 88.2562 144.31C87.5272 143.583 86.5186 143.164 85.4902 143.164Z" fill="white"/>
<path d="M163.41 77.4851L154.293 36.2967C156.753 35.9636 158.923 34.712 160.45 32.8996C162.252 34.0259 164.377 34.6799 166.654 34.6799H174.479C176.639 34.6799 178.391 32.9287 178.391 30.7679V15.1196C178.391 12.9587 176.639 11.2075 174.479 11.2075H166.654C164.31 11.2075 162.125 11.9013 160.29 13.0917C158.499 11.0669 155.884 9.7863 152.974 9.7863H129.881C125.732 9.7863 122.181 12.3887 120.767 16.0456H111.494C105.886 16.0456 101.323 20.6087 101.323 26.217C101.323 31.8253 105.886 36.3884 111.494 36.3884H131.631V44.2722C131.631 46.433 133.382 48.1842 135.543 48.1842C137.704 48.1842 139.455 46.433 139.455 44.2722V36.3884H146.301L156.121 80.7584L137.535 113.861C135.505 117.465 131.675 119.703 127.538 119.703H81.1419C79.1997 103.415 65.3118 90.7418 48.5097 90.7418C41.0753 90.7418 34.061 93.1639 28.225 97.7453C28.2174 97.7515 28.2097 97.7576 28.2021 97.7637C21.2536 103.228 16.8861 111.071 15.8684 119.703H7.83332C8.34372 91.5792 31.3807 68.8586 59.6225 68.8586H87.3738C89.5636 68.8586 91.347 70.642 91.347 72.8334V107.967C91.347 110.128 93.0982 111.879 95.259 111.879H116.076C124.568 111.879 132.393 107.261 136.498 99.8298C138.397 96.3914 139.404 92.4977 139.407 88.5718L139.427 75.5749C139.43 73.4141 137.681 71.6597 135.52 71.6567C135.518 71.6567 135.517 71.6567 135.515 71.6567C133.357 71.6567 131.606 73.4049 131.603 75.5627L131.583 88.5627C131.582 91.1728 130.912 93.7614 129.65 96.046C126.921 100.985 121.719 104.054 116.076 104.054H99.1711V72.8318C99.1711 70.8284 98.6668 68.9396 97.782 67.2846C101.297 65.2537 103.668 61.4578 103.668 57.1163C103.668 50.6446 98.4025 45.3801 91.9322 45.3801H77.6532C76.2809 45.3801 74.9651 45.6185 73.7411 46.0525V11.7362C73.7411 5.26449 68.4751 0 62.0049 0H36.7674C18.4723 0 3.25803 13.4325 0.461503 30.9512C0.343835 31.3241 0.279652 31.7199 0.279652 32.131C0.279652 32.1554 0.282708 32.1783 0.282708 32.2013C0.0962738 33.6989 0 35.2224 0 36.7674V57.1178C0 62.9936 4.34149 67.8745 9.98496 68.7226L18.6481 77.3857C7.1701 88.2601 0 103.636 0 120.658V123.615C0 125.776 1.75126 127.528 3.91208 127.528H25.8976C25.8472 127.78 25.8197 128.043 25.8197 128.31C25.8197 133.987 27.9209 139.181 31.3807 143.164H3.91208C1.75126 143.164 0 144.916 0 147.076C0 149.237 1.75126 150.988 3.91208 150.988H48.0574C48.2087 150.992 48.3584 151 48.5097 151C61.0207 151 71.1998 140.821 71.1998 128.31C71.1998 128.043 71.1723 127.78 71.1218 127.528H127.538C133.698 127.528 139.455 124.575 143.063 119.691H148.017C146.903 122.402 146.312 125.324 146.312 128.31C146.312 133.987 148.413 139.181 151.873 143.164H101.139C98.9786 143.164 97.2273 144.916 97.2273 147.076C97.2273 149.237 98.9786 150.988 101.139 150.988H168.549C168.701 150.992 168.85 151 169.002 151C181.513 151 191.692 140.821 191.692 128.31C191.692 125.324 191.1 122.402 189.986 119.691H196.386C198.547 119.691 200.298 117.94 200.298 115.779C200.298 95.1291 183.878 78.2415 163.41 77.4851ZM77.6532 53.2058H91.9322C94.0885 53.2058 95.8443 54.9601 95.8443 57.1178C95.8443 59.2741 94.0885 61.0299 91.9322 61.0299H77.6532C75.4954 61.0299 73.7411 59.2741 73.7411 57.1178C73.7411 54.9601 75.4954 53.2058 77.6532 53.2058ZM7.82415 36.7674C7.82415 36.5259 7.83638 36.286 7.84249 36.0446H50.6507C52.8115 36.0446 54.5628 34.2933 54.5628 32.1325C54.5628 29.9717 52.8115 28.2204 50.6507 28.2204H9.11391C12.7693 16.42 23.7827 7.82568 36.7674 7.82568H62.0033C64.1611 7.82568 65.9154 9.58 65.9154 11.7378V57.1178C65.9154 59.2741 64.1611 61.0299 62.0033 61.0299H11.7378C11.7378 61.0299 11.7362 61.0299 11.7347 61.0299C9.57847 61.0299 7.82415 59.2741 7.82415 57.1178V36.7674ZM21.1817 68.8541H30.1337C28.254 69.9268 26.4401 71.102 24.695 72.3673L21.1817 68.8541ZM63.3756 128.31C63.3756 136.457 56.7878 143.09 48.661 143.171C48.6106 143.17 48.5602 143.164 48.5097 143.164H48.0589C40.0697 142.924 33.6438 136.356 33.6438 128.31C33.6438 128.043 33.6163 127.78 33.5659 127.528H63.4536C63.4031 127.78 63.3756 128.043 63.3756 128.31ZM23.7628 119.703C24.7317 113.488 27.9958 107.874 33.0372 103.915C33.0494 103.907 33.0601 103.896 33.0723 103.889C37.5131 100.407 42.851 98.566 48.5097 98.566C60.9917 98.566 71.3694 107.743 73.2536 119.703H23.7628ZM166.654 19.0316H170.566V26.8558H166.654C164.497 26.8558 162.742 25.1015 162.742 22.9437C162.742 20.7875 164.497 19.0316 166.654 19.0316ZM109.147 26.217C109.147 24.9227 110.2 23.8698 111.494 23.8698H120.113V26.6205C120.113 27.2867 120.18 27.9362 120.307 28.5643H111.494C110.2 28.5643 109.147 27.5114 109.147 26.217ZM135.543 28.5643H129.881C128.81 28.5643 127.937 27.6932 127.937 26.6205V19.5543C127.937 18.483 128.81 17.6105 129.881 17.6105H152.974C154.046 17.6105 154.918 18.483 154.918 19.5543V26.6205C154.918 27.6932 154.046 28.5643 152.974 28.5643H135.543ZM183.868 128.31C183.868 136.457 177.28 143.09 169.153 143.171C169.103 143.17 169.052 143.164 169.002 143.164H168.551C160.562 142.924 154.136 136.356 154.136 128.31C154.136 125.202 155.105 122.197 156.89 119.691H181.114C182.899 122.197 183.868 125.202 183.868 128.31ZM147.627 111.867L162.545 85.297C177.779 85.5767 190.322 97.076 192.223 111.867H147.627Z" fill="white"/>
<path d="M135.543 63.8325C137.704 63.8325 139.455 62.0812 139.455 59.9204C139.455 57.7596 137.704 56.0083 135.543 56.0083H135.529C133.368 56.0083 131.623 57.7596 131.623 59.9204C131.623 62.0812 133.382 63.8325 135.543 63.8325Z" fill="white"/>
</svg>
