<svg width="82" height="82" viewBox="0 0 82 82" fill="none" xmlns="http://www.w3.org/2000/svg">
<circle cx="40.8634" cy="41.3727" r="39.6271" stroke="#F53838" stroke-width="2"/>
<path d="M52.7142 39.6799H32.6376L38.7825 32.2993C39.0698 31.9536 39.2081 31.5079 39.1668 31.0603C39.1255 30.6127 38.9081 30.1998 38.5624 29.9125C38.2167 29.6251 37.7711 29.4869 37.3234 29.5282C36.8758 29.5694 36.4629 29.7868 36.1756 30.1325L27.7116 40.2893C27.6547 40.3701 27.6037 40.455 27.5593 40.5432C27.5593 40.6279 27.5593 40.6786 27.4408 40.7633C27.364 40.9574 27.3239 41.164 27.3223 41.3727C27.3239 41.5814 27.364 41.788 27.4408 41.9821C27.4408 42.0667 27.4408 42.1175 27.5593 42.2022C27.6037 42.2904 27.6547 42.3753 27.7116 42.4561L36.1756 52.6129C36.3348 52.8039 36.5341 52.9576 36.7593 53.0629C36.9846 53.1683 37.2304 53.2227 37.479 53.2223C37.8746 53.223 38.2579 53.0853 38.5624 52.8329C38.7338 52.6908 38.8755 52.5163 38.9794 52.3193C39.0832 52.1224 39.1472 51.9069 39.1677 51.6852C39.1881 51.4634 39.1646 51.2399 39.0985 51.0273C39.0324 50.8146 38.925 50.6171 38.7825 50.4461L32.6376 43.0655H52.7142C53.1632 43.0655 53.5937 42.8871 53.9112 42.5697C54.2287 42.2522 54.407 41.8216 54.407 41.3727C54.407 40.9237 54.2287 40.4932 53.9112 40.1757C53.5937 39.8582 53.1632 39.6799 52.7142 39.6799Z" fill="#F53838"/>
</svg>
