<svg width="170" height="170" viewBox="0 0 170 170" fill="none" xmlns="http://www.w3.org/2000/svg">
<g filter="url(#filter0_d)">
<circle cx="85.2033" cy="71.3727" r="40.6271" fill="#F53838"/>
<circle cx="85.2033" cy="71.3727" r="39.6271" stroke="#F53838" stroke-width="2"/>
</g>
<path d="M73.3522 69.6799H93.4288L87.2839 62.2993C86.9966 61.9536 86.8583 61.5079 86.8996 61.0603C86.9409 60.6127 87.1583 60.1998 87.504 59.9125C87.8497 59.6251 88.2953 59.4869 88.743 59.5282C89.1906 59.5694 89.6035 59.7868 89.8908 60.1325L98.3548 70.2893C98.4117 70.3701 98.4627 70.455 98.5071 70.5432C98.5071 70.6279 98.5071 70.6786 98.6256 70.7633C98.7024 70.9574 98.7425 71.164 98.7441 71.3727C98.7425 71.5814 98.7024 71.788 98.6256 71.9821C98.6256 72.0667 98.6256 72.1175 98.5071 72.2022C98.4627 72.2904 98.4117 72.3753 98.3548 72.4561L89.8908 82.6129C89.7317 82.8039 89.5323 82.9576 89.3071 83.0629C89.0818 83.1683 88.8361 83.2227 88.5874 83.2223C88.1918 83.223 87.8085 83.0853 87.504 82.8329C87.3326 82.6908 87.1909 82.5163 87.087 82.3193C86.9832 82.1224 86.9192 81.9069 86.8987 81.6852C86.8783 81.4634 86.9018 81.2399 86.9679 81.0273C87.034 80.8146 87.1414 80.6171 87.2839 80.4461L93.4288 73.0655H73.3522C72.9032 73.0655 72.4727 72.8871 72.1552 72.5697C71.8377 72.2522 71.6594 71.8216 71.6594 71.3727C71.6594 70.9237 71.8377 70.4932 72.1552 70.1757C72.4727 69.8582 72.9032 69.6799 73.3522 69.6799Z" fill="white"/>
<defs>
<filter id="filter0_d" x="0.576172" y="0.745605" width="169.254" height="169.254" filterUnits="userSpaceOnUse" color-interpolation-filters="sRGB">
<feFlood flood-opacity="0" result="BackgroundImageFix"/>
<feColorMatrix in="SourceAlpha" type="matrix" values="0 0 0 0 0 0 0 0 0 0 0 0 0 0 0 0 0 0 127 0"/>
<feOffset dy="14"/>
<feGaussianBlur stdDeviation="22"/>
<feColorMatrix type="matrix" values="0 0 0 0 0.0561111 0 0 0 0 0.0777333 0 0 0 0 0.133333 0 0 0 0.08 0"/>
<feBlend mode="normal" in2="BackgroundImageFix" result="effect1_dropShadow"/>
<feBlend mode="normal" in="SourceGraphic" in2="effect1_dropShadow" result="shape"/>
</filter>
</defs>
</svg>
