<svg width="136" height="24" viewBox="0 0 136 24" fill="none" xmlns="http://www.w3.org/2000/svg">
<path d="M10.9749 18.8472C11.6064 18.4713 12.3932 18.472 13.024 18.849L16.3649 20.8458C17.1642 21.324 18.1424 20.6172 17.932 19.7233L17.0547 16.0032C16.883 15.2749 17.1321 14.5117 17.7005 14.025L20.6351 11.5122C21.3398 10.9093 20.9611 9.76599 20.0356 9.69324L16.1529 9.36753C15.416 9.30572 14.7734 8.84237 14.4819 8.16275L12.9676 4.63143C12.61 3.78952 11.39 3.78952 11.0324 4.63143L9.51853 8.15376C9.22678 8.8326 8.58452 9.29528 7.84823 9.35705L3.96443 9.68284C3.03887 9.7556 2.66023 10.8989 3.36492 11.5018L6.29951 14.0146C6.86789 14.5013 7.11704 15.2645 6.94529 15.9928L6.06799 19.7129C5.85763 20.6068 6.83578 21.3136 7.63513 20.8355L10.9749 18.8472Z" fill="#F53838"/>
<path d="M38.9749 18.8472C39.6064 18.4713 40.3932 18.472 41.024 18.849L44.3649 20.8458C45.1642 21.324 46.1424 20.6172 45.932 19.7233L45.0547 16.0032C44.883 15.2749 45.1321 14.5117 45.7005 14.025L48.6351 11.5122C49.3398 10.9093 48.9611 9.76599 48.0356 9.69324L44.1529 9.36753C43.416 9.30572 42.7734 8.84237 42.4819 8.16275L40.9676 4.63143C40.61 3.78952 39.39 3.78952 39.0324 4.63143L37.5185 8.15376C37.2268 8.8326 36.5845 9.29528 35.8482 9.35705L31.9644 9.68284C31.0389 9.7556 30.6602 10.8989 31.3649 11.5018L34.2995 14.0146C34.8679 14.5013 35.117 15.2645 34.9453 15.9928L34.068 19.7129C33.8576 20.6068 34.8358 21.3136 35.6351 20.8355L38.9749 18.8472Z" fill="#F53838"/>
<path d="M66.9749 18.8472C67.6064 18.4713 68.3932 18.472 69.024 18.849L72.3649 20.8458C73.1642 21.324 74.1424 20.6172 73.932 19.7233L73.0547 16.0032C72.883 15.2749 73.1321 14.5117 73.7005 14.025L76.6351 11.5122C77.3398 10.9093 76.9611 9.76599 76.0356 9.69324L72.1529 9.36753C71.416 9.30572 70.7734 8.84237 70.4819 8.16275L68.9676 4.63143C68.61 3.78952 67.39 3.78952 67.0324 4.63143L65.5185 8.15376C65.2268 8.8326 64.5845 9.29528 63.8482 9.35705L59.9644 9.68284C59.0389 9.7556 58.6602 10.8989 59.3649 11.5018L62.2995 14.0146C62.8679 14.5013 63.117 15.2645 62.9453 15.9928L62.068 19.7129C61.8576 20.6068 62.8358 21.3136 63.6351 20.8355L66.9749 18.8472Z" fill="#F53838"/>
<path d="M94.9749 18.8472C95.6064 18.4713 96.3932 18.472 97.024 18.849L100.365 20.8458C101.164 21.324 102.142 20.6172 101.932 19.7233L101.055 16.0032C100.883 15.2749 101.132 14.5117 101.7 14.025L104.635 11.5122C105.34 10.9093 104.961 9.76599 104.036 9.69324L100.153 9.36753C99.416 9.30572 98.7734 8.84237 98.4819 8.16275L96.9676 4.63143C96.61 3.78952 95.39 3.78952 95.0324 4.63143L93.5185 8.15376C93.2268 8.8326 92.5845 9.29528 91.8482 9.35705L87.9644 9.68284C87.0389 9.7556 86.6602 10.8989 87.3649 11.5018L90.2995 14.0146C90.8679 14.5013 91.117 15.2645 90.9453 15.9928L90.068 19.7129C89.8576 20.6068 90.8358 21.3136 91.6351 20.8355L94.9749 18.8472Z" fill="#F53838"/>
<path d="M122.975 18.8472C123.606 18.4713 124.393 18.472 125.024 18.849L128.365 20.8458C129.164 21.324 130.142 20.6172 129.932 19.7233L129.055 16.0032C128.883 15.2749 129.132 14.5117 129.7 14.025L132.635 11.5122C133.34 10.9093 132.961 9.76599 132.036 9.69324L128.153 9.36753C127.416 9.30572 126.773 8.84237 126.482 8.16275L124.968 4.63143C124.61 3.78952 123.39 3.78952 123.032 4.63143L121.519 8.15376C121.227 8.8326 120.585 9.29528 119.848 9.35705L115.964 9.68284C115.039 9.7556 114.66 10.8989 115.365 11.5018L118.3 14.0146C118.868 14.5013 119.117 15.2645 118.945 15.9928L118.068 19.7129C117.858 20.6068 118.836 21.3136 119.635 20.8355L122.975 18.8472Z" fill="#F53838"/>
</svg>
